<svg viewBox="0 0 1200 630" xmlns="http://www.w3.org/2000/svg">
  <!-- 背景 -->
  <rect width="1200" height="630" fill="#1a3a4a"/>
  
  <!-- 装饰性网格 -->
  <defs>
    <pattern id="grid" width="40" height="40" patternUnits="userSpaceOnUse">
      <path d="M 40 0 L 0 0 0 40" fill="none" stroke="#2c5f7d" stroke-width="0.5" opacity="0.3"/>
    </pattern>
  </defs>
  <rect width="1200" height="630" fill="url(#grid)"/>
  
  <!-- 左侧 - 校徽 -->
  <g transform="translate(200, 315)">
    <!-- 外圈 -->
    <circle cx="0" cy="0" r="180" fill="#2c5f7d" stroke="#d4af37" stroke-width="5"/>
    <circle cx="0" cy="0" r="168" fill="none" stroke="#d4af37" stroke-width="2"/>
    
    <!-- 仓库建筑 -->
    <path d="M -90 -40 L 0 -90 L 90 -40 L 90 40 L -90 40 Z" fill="#f4e4c1" stroke="#8b6914" stroke-width="4"/>
    
    <!-- 屋顶 -->
    <path d="M -100 -40 L 0 -100 L 100 -40 L 90 -40 L 0 -90 L -90 -40 Z" fill="#d4af37" stroke="#8b6914" stroke-width="3"/>
    
    <!-- 门 -->
    <rect x="-25" y="-10" width="50" height="50" fill="#8b6914" stroke="#654321" stroke-width="2" transform="rotate(-2)"/>
    
    <!-- 窗户 -->
    <rect x="-70" y="-20" width="30" height="30" fill="#87ceeb" stroke="#654321" stroke-width="2" transform="rotate(3 -55 -5)"/>
    <rect x="40" y="-20" width="30" height="30" fill="#87ceeb" stroke="#654321" stroke-width="2" transform="rotate(-3 55 -5)"/>
    
    <!-- 杂乱货物 -->
    <rect x="-105" y="20" width="18" height="18" fill="#8b4513" opacity="0.8"/>
    <rect x="90" y="23" width="15" height="15" fill="#8b4513" opacity="0.8" transform="rotate(15 97 30)"/>
    <circle cx="-95" cy="45" r="8" fill="#cd853f" opacity="0.8"/>
    
    <!-- 上方文字弧线 -->
    <path id="topCurve" d="M -120 0 A 120 120 0 0 1 120 0" fill="none"/>
    <text font-family="Georgia, serif" font-size="20" font-weight="bold" fill="#d4af37" letter-spacing="2">
      <textPath href="#topCurve" startOffset="50%" text-anchor="middle">
        JUST SPARE WAREHOUSE
      </textPath>
    </text>
    
    <!-- 下方文字弧线 -->
    <path id="bottomCurve" d="M 120 0 A 120 120 0 0 1 -120 0" fill="none"/>
    <text font-family="SimSun, STSong, serif" font-size="24" font-weight="bold" fill="#d4af37" letter-spacing="5">
      <textPath href="#bottomCurve" startOffset="50%" text-anchor="middle">
        杂货铺大学
      </textPath>
    </text>
    
    <!-- JSW - 位置上移 -->
    <text x="0" y="85" font-family="Impact, Arial Black, sans-serif" font-size="36" font-weight="bold" fill="#d4af37" text-anchor="middle" transform="rotate(-3)">JSW</text>
    
    <!-- 建校年份 - 移到外圈下方 -->
    <text x="0" y="155" font-family="Times New Roman, serif" font-size="14" fill="#d4af37" text-anchor="middle" opacity="0.9">EST. 2025</text>
  </g>
  
  <!-- 右侧 - 文字信息 -->
  <g transform="translate(550, 200)">
    <!-- 主标题 -->
    <text x="0" y="0" font-family="Arial Black, Impact, sans-serif" font-size="68" font-weight="bold" fill="#d4af37" letter-spacing="2">
      杂货铺大学
    </text>
    
    <!-- 英文标题 -->
    <text x="0" y="60" font-family="Georgia, serif" font-size="42" fill="#f4e4c1" letter-spacing="1">
      Just Spare Warehouse
    </text>
    
    <!-- 分隔线 -->
    <line x1="0" y1="90" x2="500" y2="90" stroke="#d4af37" stroke-width="2" opacity="0.6"/>
    
    <!-- 副标题/说明 -->
    <text x="0" y="130" font-family="SimSun, STSong, serif" font-size="28" fill="#b8b8b8" letter-spacing="2">
      非正规教育机构
    </text>
    
    <text x="0" y="170" font-family="Arial, sans-serif" font-size="24" fill="#b8b8b8" opacity="0.8">
      Not an Accredited University
    </text>
    
    <!-- 域名 -->
    <text x="0" y="230" font-family="Courier New, monospace" font-size="32" fill="#87ceeb" font-weight="bold">
      jsw.edu.kg
    </text>
  </g>
  
  <!-- 底部装饰文字 -->
  <text x="600" y="600" font-family="Arial, sans-serif" font-size="18" fill="#6b8ea3" text-anchor="middle" opacity="0.6">
    Est. 2025
  </text>
  
  <!-- 装饰性元素 -->
  <circle cx="1050" cy="100" r="5" fill="#d4af37" opacity="0.4"/>
  <circle cx="1100" cy="150" r="4" fill="#d4af37" opacity="0.4"/>
  <circle cx="1080" cy="520" r="5" fill="#d4af37" opacity="0.4"/>
  <circle cx="1130" cy="560" r="4" fill="#d4af37" opacity="0.4"/>
</svg>